<?xml version="1.0" encoding="utf-8"?>
<!-- Generator: Adobe Illustrator 19.0.0, SVG Export Plug-In . SVG Version: 6.00 Build 0)  -->
<svg version="1.1" xmlns="http://www.w3.org/2000/svg" xmlns:xlink="http://www.w3.org/1999/xlink" x="0px" y="0px"
	 viewBox="0 0 6703.7 1133.9" style="enable-background:new 0 0 6703.7 1133.9;" xml:space="preserve">
<style type="text/css">
	.st0{display:none;}
</style>
<g id="图层_1">
	<path id="XMLID_2_" d="M557.7,215.4L325.4,563.7l232.2,348.3c20,30,11.9,70.4-18.1,90.4c-29.9,19.9-70.3,12-90.4-18.1L192.9,599.9
		c-14.6-21.9-14.6-50.4,0-72.3l256.3-384.5c20-29.9,60.4-38,90.4-18.1C569.5,145,577.6,185.5,557.7,215.4L557.7,215.4z
		 M1839.3,527.6L1583,143.1c-20-29.9-60.4-38-90.4-18.1c-29.9,20-38,60.4-18.1,90.4l232.2,348.3l-232.2,348.3
		c-20,30-11.9,70.4,18.1,90.4c29.8,19.9,70.3,12,90.4-18.1l256.3-384.5C1853.9,578,1853.9,549.5,1839.3,527.6L1839.3,527.6z
		 M1308.6,125c-29.9-20-70.4-11.9-90.4,18.1l-512.7,769c-20,30-11.9,70.4,18.1,90.4c29.8,19.9,70.3,12,90.4-18.1l512.7-769
		C1346.6,185.5,1338.5,145,1308.6,125L1308.6,125z"/>
	<g id="XMLID_7_">
		<path id="XMLID_8_" d="M2134.5,840.6c5.4-20.7,11.8-44.8,19.3-72.3c7.5-27.5,15.4-56.6,23.8-87.3c8.4-30.7,16.9-62.1,25.4-94.3
			c8.6-32.1,16.6-63.4,24.1-93.7c0.4-1.4,1.6-3.8,3.8-7.2c2.1-3.4,5.2-6.8,9.1-10.2c3.9-3.4,8.9-6.3,15-8.8
			c6.1-2.5,13.2-3.7,21.4-3.7c6.1,0,12,0.6,17.7,1.9c5.7,1.3,10.8,3.1,15.3,5.6c4.5,2.5,8,5.8,10.7,9.9c2.7,4.1,4,8.8,4,14.2
			c0,1.1,0,2.2,0,3.5c0,1.3-0.2,2.4-0.5,3.5l-15,56.8c-16.8,63.6-33.8,127.3-51.1,191.2c-17.3,63.9-34.2,128-50.6,192.3
			c-0.7,2.1-1.8,4.8-3.2,8c-1.4,3.2-3.4,6.4-5.9,9.6c-2.5,3.2-5.5,5.9-9.1,8c-3.6,2.1-7.9,3.2-12.9,3.2c-9.3,0-17.5-1.9-24.6-5.6
			c-7.2-3.8-13.2-8.5-18.2-14.2c-5-5.7-8.8-12-11.3-18.8c-2.5-6.8-3.7-13.2-3.7-19.3c0-1.8,0-3.4,0-4.8s0.4-3,1.1-4.8L2134.5,840.6z
			 M2274.3,286.3c1.8-7.5,5-16.6,9.6-27.3c4.6-10.7,12.9-20.4,24.6-28.9c5.7-3.2,12.7-6.2,20.9-8.8c8.2-2.7,14.1-4,17.7-4
			c3.6,0,7.2,1.3,11,3.8c3.8,2.5,7,5.2,9.9,8c3.6,3.6,7,7.5,10.2,11.8c8.9,0.7,14.7,3.9,17.4,9.6c2.7,5.7,4,12.5,4,20.4
			c0,5.7-0.5,10.9-1.6,15.5c-1.1,4.6-2,8.4-2.7,11.2c-2.1,7.5-6.3,14.4-12.3,20.6c-6.1,6.3-13,11.6-20.9,16.1
			c-7.9,4.5-16.1,7.9-24.6,10.4c-8.6,2.5-16.1,3.8-22.5,3.8c-8.2,0-14.6-1.4-19-4.3c-4.5-2.9-10.1-8.9-16.9-18.2
			c-3.9-5.4-6.2-9.5-6.7-12.6c-0.5-3-0.8-5.6-0.8-7.8c0-3.9,0.3-7.4,0.8-10.4C2273,292.1,2273.6,289.2,2274.3,286.3z"/>
		<path id="XMLID_11_" d="M2638.5,199c9.3,0,16.9,1,22.8,2.9c5.9,2,10.4,5.1,13.7,9.4c3.2,4.3,5.4,9.8,6.7,16.6
			c1.2,6.8,1.9,14.8,1.9,24.1c0,8.2-0.3,16-0.8,23.3c-0.5,7.3-1.4,14.7-2.7,22.2c-1.3,7.5-2.8,15.4-4.6,23.6
			c-1.8,8.2-3.7,17.1-5.9,26.8c-6.8,28.6-14.9,57-24.4,85.4c-9.5,28.4-18.8,57.6-28.1,87.6l-19.8,65.3c20.4-5.4,39.5-12.9,57.6-22.5
			c18-9.6,35.6-20.9,52.8-33.7c17.1-12.9,33.9-27.2,50.3-43.1c16.4-15.9,33.2-32.6,50.3-50.1c26.8-27.5,53.4-56,79.8-85.4
			c26.4-29.5,52-59.5,76.6-90.2c3.9-5,8-12.1,12.3-21.4c4.3-9.3,9.4-18.6,15.3-27.8c5.9-9.3,12.8-17.3,20.6-24.1
			c7.9-6.8,17.3-10.2,28.4-10.2c7.1,0,13.5,2.3,19,7c5.5,4.6,10.1,10.4,13.7,17.4c3.6,7,6.2,14.6,8,23c1.8,8.4,2.7,16.2,2.7,23.3
			c0,6.1-0.5,11.3-1.6,15.5c-20,30-41.4,58.8-64.3,86.5c-22.9,27.7-46.7,54.4-71.5,80.1c-24.8,25.7-50.3,50.8-76.6,75.3
			c-26.2,24.5-52.8,48.5-79.5,72c36.8,12.5,70.4,28.7,101,48.7c30.5,20,57.5,44.2,80.9,72.6s43.1,61.3,59.2,98.8
			c16.1,37.5,27.9,79.8,35.3,126.9c-2.1,6.4-5.2,12.6-9.1,18.5c-3.9,5.9-8.6,11.1-13.9,15.5c-5.4,4.5-11.4,8.1-18.2,11
			c-6.8,2.9-14.1,4.3-22,4.3c-12.5,0-22.2-2.6-29.2-7.8c-7-5.2-12.3-11.7-16.1-19.5c-3.7-7.9-6.4-16.6-8-26.2
			c-1.6-9.6-3.1-18.8-4.6-27.3l-2.1-13.4c-3.9-23.9-11.2-46.3-21.7-67.2c-10.5-20.9-22.9-39.5-37-56c-14.1-16.4-29.5-30.4-46.1-42
			c-16.6-11.6-32.9-20.4-49-26.5l-15.5-5.9c-6.4-2.5-13.7-5.2-21.7-8c-8-2.9-16.3-5.5-24.6-8c-8.4-2.5-16.5-4.6-24.4-6.2
			c-7.9-1.6-14.8-2.4-20.9-2.4c-3.6,0-10.5,2.1-20.9,6.2c-10.4,4.1-21.7,8.7-34,13.7c-12.3,5-24.4,9.8-36.2,14.5
			c-11.8,4.6-20.5,7.7-26.2,9.1l-13.4,54.6c-3.9,16.1-6.7,31.5-8.3,46.3c-1.6,14.8-2.8,28.8-3.5,42c-0.4,11.1-0.8,23-1.3,35.9
			c-0.5,12.9-2.4,24.8-5.6,35.9c-3.2,11.1-8.7,20.4-16.3,27.9c-7.7,7.5-19,11.2-34,11.2c-9.3,0-16.7-2.7-22.2-8
			c-5.5-5.4-9.7-12.1-12.6-20.1c-2.9-8-4.6-16.6-5.4-25.7c-0.7-9.1-1.1-17.4-1.1-24.9c0-9.3,0.6-19.7,1.9-31.3
			c1.2-11.6,2.9-23.5,4.8-35.6c2-12.1,4.2-24.2,6.7-36.2c2.5-12,5-22.9,7.5-32.9l124.8-502.4C2594.6,211.9,2611.4,199,2638.5,199z"
			/>
		<path id="XMLID_13_" d="M3168.7,903.3c10.7-41.8,21.1-80.7,31.1-116.8c10-36.1,19.7-70.6,29.2-103.6c9.4-33,18.7-65.1,27.6-96.1
			c8.9-31.1,17.5-62.7,25.7-94.8c3.2-12.5,5.1-24.5,5.6-36.2c0.5-11.6,2.2-23.6,5.1-36.1c1.4-4.3,4-8.1,7.8-11.5
			c3.8-3.4,7.9-6.3,12.6-8.8c4.7-2.5,9.6-4.5,14.7-5.9c5.2-1.4,10.1-2.1,14.7-2.1c10,0,18.3,1.2,24.9,3.5c6.6,2.3,12,5.4,16.1,9.4
			c4.1,3.9,7,8.7,8.6,14.2c1.6,5.5,2.4,11.7,2.4,18.5c0,12.1-2,24.4-5.9,36.7c-3.9,12.3-8.8,25.8-14.5,40.4
			c16.8-13.2,34-25.7,51.7-37.5c17.7-11.8,35.9-22.1,54.6-31.1c18.7-8.9,37.9-16.1,57.6-21.4c19.6-5.4,40-8,61.1-8
			c9.6,0,19.3,1.5,28.9,4.6c9.6,3,18.3,7.8,26,14.2c7.7,6.4,14.1,14.8,19.3,25.2c5.2,10.4,8.1,23,8.8,38
			c15.4-10.4,31.3-20.8,47.7-31.3c16.4-10.5,33.1-20,50.1-28.4c17-8.4,33.9-15.2,50.9-20.4c17-5.2,33.5-7.8,49.5-7.8
			c23.9,0,43.6,3.1,59.2,9.4c15.5,6.2,27.9,14.6,36.9,25.2c9.1,10.5,15.5,22.8,19.3,36.7c3.8,13.9,5.6,28.7,5.6,44.4
			c0,17.1-1.6,34.8-4.8,53c-3.2,18.2-6.8,35.5-10.7,51.9c-10.4,41.4-22,80.6-34.8,117.6c-12.9,37-26.8,74.4-41.8,112.2
			c-3.6,8.9-7.3,18.4-11.2,28.4c-4,10-8.5,19.2-13.7,27.6c-5.2,8.4-11.3,15.4-18.2,20.9c-7,5.5-15.1,8.3-24.4,8.3
			c-21.1,0-35.5-3.6-43.4-10.7c-7.9-7.1-11.8-17.3-11.8-30.5c0-3.6,0.2-7.7,0.5-12.3c0.4-4.6,1.3-9.1,2.7-13.4
			c1.4-5.4,4.6-13.1,9.6-23.3c5-10.2,10.4-21.2,16.3-32.9c5.9-11.8,11.7-23.7,17.4-35.6c5.7-12,10-22.4,12.8-31.3
			c4.6-15.3,10.1-33.1,16.3-53.3c6.2-20.2,12.2-40.5,17.9-61.1c5.7-20.5,10.4-40,14.2-58.4c3.8-18.4,5.6-33.3,5.6-44.7
			c0-5.4-0.6-10.7-1.6-16.1c-1.1-5.4-3-10-5.6-13.9c-2.7-3.9-6.4-7.1-11.2-9.6c-4.8-2.5-11-3.7-18.5-3.7c-10.7,0-23.5,3-38.3,9.1
			c-14.8,6.1-30.2,14-46.1,23.8c-15.9,9.8-31.3,20.9-46.3,33.2c-15,12.3-27.9,24.6-38.6,36.7c-7.5,8.6-14.6,15.5-21.4,20.9
			c-6.8,5.4-13.6,9.5-20.4,12.3c-0.7,1.4-2.5,6.2-5.4,14.2c-2.9,8-6.2,17.7-10.2,28.9c-3.9,11.2-8,23.4-12.3,36.4
			c-4.3,13-8.3,25.2-12.1,36.4c-3.8,11.2-6.9,20.7-9.4,28.4c-2.5,7.7-3.8,11.9-3.8,12.6c-2.5,10-4.6,20.3-6.4,30.8
			c-1.8,10.5-3.4,20.6-4.8,30.3c-1.4,9.6-2.8,19.9-4,30.8c-1.3,10.9-3.8,21.1-7.5,30.5s-9.5,17.2-17.1,23.3
			c-7.7,6.1-18.5,9.1-32.4,9.1c-7.2,0-13.7-1.8-19.6-5.4c-5.9-3.6-11-8.1-15.3-13.7c-4.3-5.5-7.7-11.8-10.2-18.8
			c-2.5-7-4-14-4.3-21.2c8.2-32.1,16.2-61.1,24.1-86.8c7.9-25.7,15.7-50.3,23.6-73.9c7.9-23.6,15.4-47.2,22.8-71
			c7.3-23.7,14.5-49.9,21.7-78.5c1.8-6.8,3.2-13.5,4.3-20.1c1.1-6.6,1.6-12.4,1.6-17.4c0-8.6-1.8-15.6-5.4-21.2
			c-3.6-5.5-9.8-8.3-18.7-8.3c-14.7,0-29.2,2.9-43.7,8.8c-14.5,5.9-30.1,15.1-46.9,27.6c-16.8,12.5-35.4,28.4-56,47.7
			c-20.5,19.3-44.2,42.3-71,69.1c-2.9,5.4-6.6,15.4-11.3,30c-4.6,14.6-9.4,30.2-14.2,46.6c-4.8,16.4-9.2,31.7-13.1,45.8
			c-3.9,14.1-6.4,23.5-7.5,28.1c-3.9,15-6.6,27.6-8,37.8c-1.4,10.2-2.7,19.4-3.8,27.6c-0.7,4.3-1.8,11.3-3.2,21.2
			c-1.4,9.8-4,19.7-7.8,29.7c-3.8,10-9,18.8-15.8,26.5c-6.8,7.7-15.7,11.5-26.8,11.5c-16.4,0-29.9-4.5-40.4-13.4
			c-10.5-8.9-15.8-20.2-15.8-33.7c0-2.5,0.2-4.8,0.5-7C3167.5,908.1,3168,905.8,3168.7,903.3z"/>
		<path id="XMLID_15_" d="M4115.6,733.5c5.4-21.8,13.7-44.9,24.9-69.4c11.2-24.5,26-49.2,44.2-74.2c18.2-25,40.1-49.4,65.6-73.4
			c25.5-23.9,55.1-46.2,88.6-66.9c5.4-3.2,13.6-6.7,24.6-10.4c11.1-3.8,22.5-6,34.3-6.7c13.9-15,32.7-22.5,56.2-22.5
			c27.9,0,51.3,7.1,70.4,21.2c19.1,14.1,34.9,33.3,47.4,57.6c3.9,7.9,7.6,15.5,11,23c3.4,7.5,6.2,15.4,8.6,23.8
			c2.3,8.4,4.2,17.4,5.6,27c1.4,9.6,2.1,20.5,2.1,32.7c0,28.2-4.5,57-13.4,86.2c-8.9,29.3-21.6,57.8-38,85.7
			c-16.4,27.9-36.3,54.5-59.7,80.1c-23.4,25.5-49.4,48.5-77.9,68.8c-19.3,13.9-40.6,24.7-64,32.4c-23.4,7.7-49.5,11.5-78.5,11.5
			c-27.5,0-51.3-3.7-71.5-11c-20.2-7.3-36.9-17.8-50.3-31.3c-13.4-13.6-23.4-29.8-30-48.7c-6.6-18.9-9.9-40-9.9-63.2
			C4106,783.3,4109.2,759.2,4115.6,733.5z M4204.5,740.5c-2.1,8.2-3.7,16-4.5,23.3c-0.9,7.3-1.3,14.4-1.3,21.2
			c0,11.8,1.5,22.8,4.5,32.9c3,10.2,7.9,18.9,14.7,26.2c6.8,7.3,15.3,13,25.4,17.1c10.2,4.1,22.6,6.2,37.2,6.2
			c27.1,0,52.4-6.9,75.8-20.6c23.4-13.7,44.2-31,62.4-51.7c18.2-20.7,33.5-42.9,45.8-66.7c12.3-23.7,21-45.6,26-65.6
			c3.2-12.5,6-24.3,8.3-35.3c2.3-11.1,3.5-21.2,3.5-30.5c0-9.3-1.7-17.9-5.1-26c-3.4-8-7.8-17-13.1-27c-3.2-6.1-6.4-12.4-9.6-19
			c-3.2-6.6-6.1-13.1-8.6-19.6c-2.9,5-5.9,9.4-9.1,13.1c-3.2,3.7-8,7.1-14.5,10.2c-6.4,3-15.2,5.8-26.2,8.3
			c-11.1,2.5-25.5,4.6-43.4,6.4c-11.8,3.9-23.8,10-35.9,18.2c-12.2,8.2-24,17.9-35.6,28.9c-11.6,11.1-22.7,23-33.2,35.9
			c-10.5,12.9-20,26-28.4,39.4c-8.4,13.4-15.7,26.5-22,39.4C4211.4,718,4207,729.8,4204.5,740.5z"/>
		<path id="XMLID_18_" d="M4695.7,733.5c5.4-21.8,13.7-44.9,24.9-69.4c11.2-24.5,26-49.2,44.2-74.2c18.2-25,40.1-49.4,65.6-73.4
			c25.5-23.9,55.1-46.2,88.6-66.9c5.4-3.2,13.6-6.7,24.6-10.4c11.1-3.8,22.5-6,34.3-6.7c13.9-15,32.7-22.5,56.2-22.5
			c27.9,0,51.3,7.1,70.4,21.2c19.1,14.1,34.9,33.3,47.4,57.6c3.9,7.9,7.6,15.5,11,23c3.4,7.5,6.2,15.4,8.6,23.8
			c2.3,8.4,4.2,17.4,5.6,27s2.1,20.5,2.1,32.7c0,28.2-4.5,57-13.4,86.2c-8.9,29.3-21.6,57.8-38,85.7c-16.4,27.9-36.3,54.5-59.7,80.1
			c-23.4,25.5-49.4,48.5-77.9,68.8c-19.3,13.9-40.6,24.7-64,32.4c-23.4,7.7-49.5,11.5-78.5,11.5c-27.5,0-51.3-3.7-71.5-11
			c-20.2-7.3-37-17.8-50.3-31.3c-13.4-13.6-23.4-29.8-30-48.7c-6.6-18.9-9.9-40-9.9-63.2C4686,783.3,4689.2,759.2,4695.7,733.5z
			 M4784.6,740.5c-2.1,8.2-3.7,16-4.5,23.3c-0.9,7.3-1.3,14.4-1.3,21.2c0,11.8,1.5,22.8,4.5,32.9c3,10.2,7.9,18.9,14.7,26.2
			c6.8,7.3,15.3,13,25.4,17.1c10.2,4.1,22.6,6.2,37.2,6.2c27.1,0,52.4-6.9,75.8-20.6c23.4-13.7,44.2-31,62.4-51.7
			c18.2-20.7,33.5-42.9,45.8-66.7c12.3-23.7,21-45.6,26-65.6c3.2-12.5,6-24.3,8.3-35.3c2.3-11.1,3.5-21.2,3.5-30.5
			c0-9.3-1.7-17.9-5.1-26c-3.4-8-7.8-17-13.1-27c-3.2-6.1-6.4-12.4-9.6-19c-3.2-6.6-6.1-13.1-8.6-19.6c-2.9,5-5.9,9.4-9.1,13.1
			c-3.2,3.7-8,7.1-14.5,10.2c-6.4,3-15.2,5.8-26.2,8.3c-11.1,2.5-25.5,4.6-43.4,6.4c-11.8,3.9-23.8,10-35.9,18.2
			c-12.2,8.2-24,17.9-35.6,28.9c-11.6,11.1-22.7,23-33.2,35.9c-10.5,12.9-20,26-28.4,39.4c-8.4,13.4-15.7,26.5-22,39.4
			C4791.4,718,4787,729.8,4784.6,740.5z"/>
		<path id="XMLID_21_" d="M5650.6,498.9c-12.5,0-25.9,2.9-40.2,8.8c-14.3,5.9-29.1,13.8-44.5,23.8c-15.4,10-31,21.3-46.9,34
			c-15.9,12.7-31.5,25.8-46.9,39.4c-7.9,6.8-15.4,12.9-22.5,18.5c-7.1,5.5-14.3,9.7-21.4,12.6c-5,8.2-10.3,19-15.8,32.4
			c-5.5,13.4-11,28-16.3,43.9c-5.4,15.9-10.4,32.1-15.3,48.7c-4.8,16.6-8.8,32-12,46.3c-1.8,7.5-3.2,14.8-4.3,22
			c-1.1,7.1-2.3,14.7-3.7,22.8c-1.4,8-3.1,16.7-5.1,26c-2,9.3-4.4,19.6-7.2,31.1c-1.8,6.8-4.6,12.2-8.6,16.3
			c-3.9,4.1-8,7.2-12.3,9.4s-8.4,3.5-12.3,4c-3.9,0.5-7,0.8-9.1,0.8c-13.6,0-24.6-3.2-33.2-9.6c-8.6-6.4-12.9-18.9-12.9-37.5
			c0-5,0.2-10.3,0.5-15.8c0.4-5.5,1.4-11.7,3.2-18.5c7.8-33.9,15.4-64.4,22.8-91.6c7.3-27.1,14.7-52.3,22.2-75.5
			c7.5-23.2,15.1-45.1,22.8-65.6c7.7-20.5,15.5-41.2,23.6-62.1c8-20.9,16.4-42.5,25.2-64.8c8.7-22.3,18.1-47,28.1-74.2
			c2.1-6.1,7.8-11.2,16.9-15.3c9.1-4.1,18.8-6.2,29.2-6.2c13.6,0,24.7,3,33.5,9.1c8.7,6.1,13.1,14.8,13.1,26.2c0,1.1-0.4,3-1.1,5.9
			c-0.7,2.9-1.8,5.9-3.2,9.1l-23.6,55.7c15-11.8,30.6-23.6,46.9-35.3c16.2-11.8,32.9-22.4,50.1-31.9c17.1-9.5,34.4-17.1,51.7-23
			c17.3-5.9,34.4-8.8,51.1-8.8c34.3,0,61.1,9.2,80.3,27.6c19.3,18.4,28.9,46.9,28.9,85.4c0,22.1-3.8,47.3-11.5,75.5
			c-7.7,28.2-17.3,58.5-28.9,90.8c-11.6,32.3-24.1,66.2-37.5,101.8c-13.4,35.5-25.8,71.7-37.2,108.5c-3.2,10-6.5,18.4-9.9,25.2
			c-3.4,6.8-7.4,12.2-12.1,16.3c-4.6,4.1-10.1,7.1-16.3,8.8c-6.3,1.8-13.8,2.7-22.8,2.7c-13.9,0-23.6-2.6-28.9-7.8
			c-5.4-5.2-8-13.5-8-24.9c0-10,1.5-22.2,4.5-36.7c3-14.5,7.3-30.3,12.9-47.7c5.5-17.3,12-35.8,19.3-55.4
			c7.3-19.6,15.3-39.6,23.8-60c6.8-16.4,13.5-32.8,20.1-49.3c6.6-16.4,12.5-32.3,17.7-47.7c5.2-15.3,9.4-30,12.6-43.9
			c3.2-13.9,4.8-26.8,4.8-38.6c0-11.1-2.4-20.8-7.2-29.2C5672.8,503.1,5663.8,498.9,5650.6,498.9z"/>
		<path id="XMLID_23_" d="M6109,188.3c0,7.5-7,25.9-20.9,55.2c-30.4,60.3-56.8,133.7-79.3,220.1c-5.4,22.9-22.8,34.3-52.5,34.3
			c-35,0-52.5-15.3-52.5-46.1c0-24.6,21-80.5,62.9-167.6c41.9-87.1,75.4-130.7,100.4-130.7C6095.1,153.5,6109,165.1,6109,188.3z"/>
		<path id="XMLID_25_" d="M6133.7,843.8c2.9,0,5.4,0.4,7.8,1.1c2.3,0.7,4.9,1.5,7.8,2.4c2.9,0.9,6.1,1.7,9.6,2.4
			c3.6,0.7,8.2,1.1,13.9,1.1c16.8,0,35.4-1.8,56-5.4c20.5-3.6,39.9-8.2,58.1-13.9c18.2-5.7,33.8-12.2,46.9-19.6
			c13-7.3,20.4-14.9,22.2-22.8c1.1-4.3,1.6-8,1.6-11.3c0-6.1-2.9-11.9-8.8-17.4c-5.9-5.5-13.3-10.8-22.2-15.8
			c-8.9-5-18.6-9.6-28.9-13.9c-10.4-4.3-20-8.2-28.9-11.8l-18.2-7.5c-9.3-3.6-18.4-7.9-27.3-13.1c-8.9-5.2-17.2-11.2-24.9-17.9
			c-7.7-6.8-14.5-14.7-20.4-23.8c-5.9-9.1-10.3-19.5-13.1-31.3c-1.4-5-2.6-10-3.5-15c-0.9-5-1.3-10.4-1.3-16.1
			c0-9.3,3.1-19.9,9.4-31.9c6.2-12,14.6-23.8,25.2-35.6c10.5-11.8,22.5-23,35.9-33.7c13.4-10.7,27.4-19.6,42-26.8
			c10.7-7.5,21.1-14.3,31.1-20.4c10-6.1,20.1-11.2,30.3-15.5c10.2-4.3,20.5-7.7,31.1-10.2c10.5-2.5,21.7-3.7,33.5-3.7
			c10.7,0,22.3,0.5,34.8,1.6c12.5,1.1,23.9,3.6,34.3,7.5c10.4,3.9,19,9.7,26,17.4c7,7.7,10.4,17.9,10.4,30.8c0,3.9-0.5,9.1-1.6,15.5
			c-1.1,6.4-2.9,12.9-5.4,19.3c-2.5,6.4-5.5,12-9.1,16.6c-3.6,4.6-7.9,7-12.9,7c-8.2,0-15-1.6-20.4-4.8c-5.4-3.2-10.2-6.7-14.5-10.4
			c-4.3-3.8-8.8-7.2-13.4-10.4c-4.6-3.2-10.4-4.8-17.1-4.8c-8.2,0-17.8,1.5-28.7,4.6c-10.9,3-22.1,7.1-33.5,12.3
			c-11.4,5.2-22.6,11.2-33.5,17.9c-10.9,6.8-20.7,13.8-29.5,20.9c-8.8,7.2-15.8,14.2-21.2,21.2s-8,13.3-8,19c0,6.1,2,11.1,5.9,15
			c3.9,3.9,8.9,7.3,15,10.2c7.9,4.3,16.9,8.6,27.1,12.9c10.2,4.3,20.4,8.6,30.8,12.9c10.3,4.3,20.4,8.6,30.3,12.9
			c9.8,4.3,18.3,8.2,25.4,11.8c9.6,5,18.3,9.9,26,14.7c7.7,4.8,14.2,10.1,19.5,15.8c5.4,5.7,9.5,12.1,12.3,19.3
			c2.9,7.1,4.3,15.5,4.3,25.2c0,4.6-0.4,9.3-1.1,13.9c-0.7,4.6-1.8,10-3.2,16.1c-1.1,5.4-2.9,11.6-5.6,18.7
			c-2.7,7.1-5.5,14.2-8.6,21.2c-3,7-6.2,13.2-9.4,18.7c-3.2,5.5-5.9,9.2-8,11c-13.9,12.9-30.3,24.9-49.3,36.1
			c-18.9,11.2-38.7,21.1-59.2,29.5c-20.5,8.4-41.1,15.1-61.6,20.1c-20.5,5-39.4,7.5-56.5,7.5c-8.6,0-18-1.7-28.4-5.1
			c-10.4-3.4-19.9-7.8-28.7-13.4c-8.8-5.5-16.1-11.9-22-19c-5.9-7.1-8.8-14.3-8.8-21.4c0-3.6,1.1-7.6,3.2-12.1
			c2.1-4.5,4.8-8.6,8-12.3c3.2-3.7,6.7-7,10.4-9.6S6130.4,843.8,6133.7,843.8z"/>
	</g>
</g>
<g id="图层_2" class="st0">
	<rect id="XMLID_6_" x="5646.8" y="1741.9" style="display:inline;fill:none;" width="395.8" height="112.1"/>
	
		<text id="XMLID_27_" transform="matrix(1 0 0 1 5646.7915 1825.1289)" style="display:inline; font-family:'MVBoli'; font-size:97.0556px;">iKmoon&apos;s</text>
</g>
</svg>
