<?xml version="1.0" standalone="no"?><!DOCTYPE svg PUBLIC "-//W3C//DTD SVG 1.1//EN" "http://www.w3.org/Graphics/SVG/1.1/DTD/svg11.dtd"><svg t="1575612998786" class="icon" viewBox="0 0 1024 1024" version="1.1" xmlns="http://www.w3.org/2000/svg" p-id="30108" xmlns:xlink="http://www.w3.org/1999/xlink" width="48" height="48"><defs><style type="text/css"></style></defs><path d="M905.6 481.92l37.76 49.92a36.48 36.48 0 0 1-7.68 49.92 359.68 359.68 0 0 1-45.44 0H77.44A37.12 37.12 0 0 1 64 531.84L320 128a36.48 36.48 0 0 1 29.44-17.28A40.96 40.96 0 0 1 384 128l49.28 64c7.68 9.6 14.08 19.2 21.76 28.8a263.68 263.68 0 0 1 342.4-138.24A256 256 0 0 1 955.52 332.8a259.84 259.84 0 0 1-49.92 149.12zM693.76 147.2a192 192 0 0 0-177.28 128 67.84 67.84 0 0 1-12.16 17.28c64 87.04 106.24 141.44 128 170.24C659.2 433.28 704 384 739.84 341.76A43.52 43.52 0 0 1 768 329.6a32 32 0 0 1 27.52 13.44l58.88 77.44a175.36 175.36 0 0 0 23.68-87.04A192 192 0 0 0 693.76 147.2z m-576 499.84h624a31.36 31.36 0 1 1 0 64H117.12a31.36 31.36 0 1 1 0-64z m94.72 128h472.96a31.36 31.36 0 1 1 0 64H212.48a31.36 31.36 0 1 1 0-64z m594.56 0a30.08 30.08 0 1 1-30.08 30.72 29.44 29.44 0 0 1 29.44-30.08zM452.48 896H928a31.36 31.36 0 1 1 0 64H448a31.36 31.36 0 1 1 0-64z" p-id="30109" fill="#9E9E9E"></path></svg>
