<?xml version="1.0" standalone="no"?><!DOCTYPE svg PUBLIC "-//W3C//DTD SVG 1.1//EN" "http://www.w3.org/Graphics/SVG/1.1/DTD/svg11.dtd"><svg t="1576244456905" class="icon" viewBox="0 0 1024 1024" version="1.1" xmlns="http://www.w3.org/2000/svg" p-id="1145" xmlns:xlink="http://www.w3.org/1999/xlink" width="48" height="48"><defs><style type="text/css"></style></defs><path d="M940.218182 474.763636H316.509091c-18.618182 0-37.236364 18.618182-37.236364 37.236364s18.618182 37.236364 37.236364 37.236364h623.709091c18.618182 0 37.236364-18.618182 37.236363-37.236364s-18.618182-37.236364-37.236363-37.236364M102.4 139.636364C69.818182 139.636364 46.545455 162.909091 46.545455 195.490909s23.272727 55.854545 55.854545 55.854546 55.854545-23.272727 55.854545-55.854546S134.981818 139.636364 102.4 139.636364m837.818182 651.636363H316.509091c-18.618182 0-37.236364 18.618182-37.236364 37.236364s18.618182 37.236364 37.236364 37.236364h623.709091c18.618182 0 37.236364-18.618182 37.236363-37.236364s-18.618182-37.236364-37.236363-37.236364M316.509091 232.727273h623.709091c18.618182 0 37.236364-18.618182 37.236363-37.236364s-18.618182-37.236364-37.236363-37.236364H316.509091c-18.618182 0-37.236364 18.618182-37.236364 37.236364s18.618182 37.236364 37.236364 37.236364M102.4 456.145455C69.818182 456.145455 46.545455 479.418182 46.545455 512s23.272727 55.854545 55.854545 55.854545S158.254545 544.581818 158.254545 512s-23.272727-55.854545-55.854545-55.854545m0 316.50909c-32.581818 0-55.854545 23.272727-55.854545 55.854546S69.818182 884.363636 102.4 884.363636s55.854545-23.272727 55.854545-55.854545-23.272727-55.854545-55.854545-55.854546" fill="#9E9E9E" p-id="1146"></path></svg>