<?xml version="1.0" standalone="no"?><!DOCTYPE svg PUBLIC "-//W3C//DTD SVG 1.1//EN" "http://www.w3.org/Graphics/SVG/1.1/DTD/svg11.dtd"><svg t="1575624049526" class="icon" viewBox="0 0 1024 1024" version="1.1" xmlns="http://www.w3.org/2000/svg" p-id="10936" xmlns:xlink="http://www.w3.org/1999/xlink" width="48" height="48"><defs><style type="text/css"></style></defs><path d="M878.933333 947.2H605.866667a68.266667 68.266667 0 0 1-68.266667-68.266667V605.866667a68.266667 68.266667 0 0 1 68.266667-68.266667h273.066666a68.266667 68.266667 0 0 1 68.266667 68.266667v273.066666a68.266667 68.266667 0 0 1-68.266667 68.266667z m34.133334-324.266667a51.2 51.2 0 0 0-51.2-51.2H622.933333a51.2 51.2 0 0 0-51.2 51.2v238.933334a51.2 51.2 0 0 0 51.2 51.2h238.933334a51.2 51.2 0 0 0 51.2-51.2V622.933333z m-34.133334-136.533333H605.866667a68.266667 68.266667 0 0 1-68.266667-68.266667V145.066667a68.266667 68.266667 0 0 1 68.266667-68.266667h273.066666a68.266667 68.266667 0 0 1 68.266667 68.266667v273.066666a68.266667 68.266667 0 0 1-68.266667 68.266667z m-460.8 460.8H145.066667a68.266667 68.266667 0 0 1-68.266667-68.266667V605.866667a68.266667 68.266667 0 0 1 68.266667-68.266667h273.066666a68.266667 68.266667 0 0 1 68.266667 68.266667v273.066666a68.266667 68.266667 0 0 1-68.266667 68.266667z m0-460.8H145.066667a68.266667 68.266667 0 0 1-68.266667-68.266667V145.066667a68.266667 68.266667 0 0 1 68.266667-68.266667h273.066666a68.266667 68.266667 0 0 1 68.266667 68.266667v273.066666a68.266667 68.266667 0 0 1-68.266667 68.266667z" p-id="10937" fill="#9E9E9E"></path></svg>