<?xml version="1.0" standalone="no"?><!DOCTYPE svg PUBLIC "-//W3C//DTD SVG 1.1//EN" "http://www.w3.org/Graphics/SVG/1.1/DTD/svg11.dtd"><svg t="1575609862952" class="icon" viewBox="0 0 1447 1024" version="1.1" xmlns="http://www.w3.org/2000/svg" p-id="7202" width="67.828125" height="48" xmlns:xlink="http://www.w3.org/1999/xlink"><defs><style type="text/css"></style></defs><path d="M414.137379 850.114207c-17.090207 0-34.304-6.002759-48.039724-18.220138L0 506.456276 386.418759 162.939586a72.350897 72.350897 0 0 1 96.079448 108.155586L217.776552 506.456276l244.400551 217.193931a72.350897 72.350897 0 0 1 6.002759 102.152827 71.909517 71.909517 0 0 1-54.042483 24.311173z m647.168-0.141241L1447.724138 506.456276 1081.626483 181.018483a72.262621 72.262621 0 0 0-102.082207 6.002758 72.350897 72.350897 0 0 0 6.002758 102.170483l244.400552 217.264552-264.721655 235.272827a72.350897 72.350897 0 0 0-6.002759 102.170483 71.909517 71.909517 0 0 0 54.024828 24.311173c17.090207 0 34.304-6.002759 48.057379-18.237793z m-338.449655 102.523586l144.684138-868.210759A72.333241 72.333241 0 0 0 808.077241 1.024a72.068414 72.068414 0 0 0-83.208827 59.462621l-144.701793 868.210758a72.350897 72.350897 0 0 0 71.415172 84.215173 72.350897 72.350897 0 0 0 71.273931-60.416z" p-id="7203" fill="currentColor"></path></svg>
