<?xml version="1.0" standalone="no"?><!DOCTYPE svg PUBLIC "-//W3C//DTD SVG 1.1//EN" "http://www.w3.org/Graphics/SVG/1.1/DTD/svg11.dtd"><svg t="1575797595802" class="icon" viewBox="0 0 1025 1024" version="1.1" xmlns="http://www.w3.org/2000/svg" p-id="1086" xmlns:xlink="http://www.w3.org/1999/xlink" width="48.046875" height="48"><defs><style type="text/css"></style></defs><path d="M933.595429 178.468571 90.404571 178.468571C40.521143 178.468571 0 215.917714 0 261.851429l0 500.297143c0 45.933714 40.521143 83.382857 90.404571 83.382857l843.337143 0c49.737143 0 90.404571-37.449143 90.404571-83.382857L1024.146286 261.851429C1024 215.917714 983.332571 178.468571 933.595429 178.468571L933.595429 178.468571 933.595429 178.468571zM60.269714 762.148571 60.269714 272.530286 326.217143 517.997714l-0.292571 0L60.269714 763.318857 60.269714 762.148571 60.269714 762.148571 60.269714 762.148571zM103.716571 234.057143l816.420571 0L512 610.742857 103.716571 234.057143 103.716571 234.057143 103.716571 234.057143zM368.64 557.202286l143.36 132.242286 143.945143-132.973714L908.873143 789.942857 116.443429 789.942857 368.64 557.202286 368.64 557.202286 368.64 557.202286zM699.392 517.997714 697.782857 517.997714l266.093714-245.467429 0 489.472L699.392 517.997714 699.392 517.997714 699.392 517.997714zM699.392 517.997714" fill="#3298dc" p-id="1087"></path></svg>