<?xml version="1.0" standalone="no"?><!DOCTYPE svg PUBLIC "-//W3C//DTD SVG 1.1//EN" "http://www.w3.org/Graphics/SVG/1.1/DTD/svg11.dtd"><svg t="1577106907220" class="icon" viewBox="0 0 1024 1024" version="1.1" xmlns="http://www.w3.org/2000/svg" p-id="16014" xmlns:xlink="http://www.w3.org/1999/xlink" width="48" height="48"><defs><style type="text/css"></style></defs><path d="M986.585 512c0 261.908-212.677 474.585-474.585 474.585S37.415 773.908 37.415 512 250.092 37.415 512 37.415 986.585 250.092 986.585 512zM360.369 311.138c-47.261 0-84.677 37.416-84.677 84.677s37.416 84.677 84.677 84.677 84.677-37.415 84.677-84.677-37.415-84.677-84.677-84.677z m305.231 0c-47.262 0-84.677 37.416-84.677 84.677s37.415 84.677 84.677 84.677 84.677-37.415 84.677-84.677-37.415-84.677-84.677-84.677zM661.662 640c-39.385 35.446-92.554 55.138-149.662 55.138-55.138 0-106.338-19.692-147.692-53.169l-17.723-15.754c-5.908-3.938-9.847-5.907-21.662-5.907-21.661 0-37.415 17.723-37.415 37.415 0 9.846 3.938 19.692 11.815 27.57l13.785 11.815c53.169 47.261 124.061 74.83 198.892 74.83 76.8 0 147.692-29.538 200.862-76.8l9.846-9.846c7.877-7.877 11.815-17.723 11.815-27.569 0-21.661-17.723-37.415-37.415-37.415-9.846 0-17.723 3.938-23.631 7.877L661.662 640z" p-id="16015" fill="currentColor"></path></svg>
