<?xml version="1.0" standalone="no"?><!DOCTYPE svg PUBLIC "-//W3C//DTD SVG 1.1//EN" "http://www.w3.org/Graphics/SVG/1.1/DTD/svg11.dtd"><svg t="1575689676605" class="icon" viewBox="0 0 1024 1024" version="1.1" xmlns="http://www.w3.org/2000/svg" p-id="7521" width="48" height="48" xmlns:xlink="http://www.w3.org/1999/xlink"><defs><style type="text/css"></style></defs><path d="M1019.113487 576.181681l-3.197201 25.53498-119.831098 44.888703a384.644609 384.644609 0 0 1-11.7657 29.883173l56.739662 114.545059-15.090789 20.888381a514.195198 514.195198 0 0 1-100.988926 104.399273l-20.376829 15.815489-116.37812-53.03091a397.64656 397.64656 0 0 1-29.414251 12.746176l-40.881545 121.280495-25.49235 4.049788c-30.181579 4.774487-60.491045 6.948584-90.075813 6.394403a512.234248 512.234248 0 0 1-54.991859-4.007159l-25.577609-3.197201-44.803445-119.873727a395.600352 395.600352 0 0 1-29.883173-11.80833l-114.502429 56.782292-20.888381-15.090789a513.044206 513.044206 0 0 1-104.314015-101.074185l-15.815488-20.376828 52.98828-116.42075a426.293482 426.293482 0 0 1-12.746175-29.45688l-121.195237-40.881545-4.049788-25.53498a516.6677 516.6677 0 0 1-6.394403-90.118442c0.341035-18.117473 1.662545-36.61861 4.007159-55.034488l3.197201-25.577609 119.788469-44.846075c3.538236-10.145785 7.502765-20.163682 11.808329-29.925802L82.248301 232.589134l15.090789-20.88838A512.831059 512.831059 0 0 1 198.328016 107.344109l20.376828-15.858117 116.378121 53.073538c9.634233-4.689228 19.438983-8.909534 29.41425-12.788804L405.37876 10.49023l25.49235-4.049788a510.699592 510.699592 0 0 1 145.067672-2.387244l25.53498 3.197202 44.846074 119.916356c10.145785 3.495607 20.163682 7.460136 29.883174 11.7657l114.502429-56.782292 20.88838 15.133419a511.722696 511.722696 0 0 1 104.271386 101.074185l15.858118 20.334199-52.98828 116.463379c4.646599 9.634233 8.866904 19.481612 12.746175 29.41425l121.195237 40.924175 4.049788 25.534979c4.774487 30.138949 6.948584 60.491045 6.394402 90.075813-0.341035 18.117473-1.662545 36.661239-4.007158 55.077118zM511.653725 299.133547a213.146741 213.146741 0 1 0 0.04263 426.336111A213.146741 213.146741 0 0 0 511.653725 299.133547z m0 341.034786a127.888045 127.888045 0 1 1 0-255.77609 127.888045 127.888045 0 0 1 0 255.77609z" p-id="7522" data-spm-anchor-id="a313x.7781069.0.i3" fill="currentColor"></path></svg>
