<?xml version="1.0" standalone="no"?><!DOCTYPE svg PUBLIC "-//W3C//DTD SVG 1.1//EN" "http://www.w3.org/Graphics/SVG/1.1/DTD/svg11.dtd"><svg t="1577346401515" class="icon" viewBox="0 0 1024 1024" version="1.1" xmlns="http://www.w3.org/2000/svg" p-id="1518" xmlns:xlink="http://www.w3.org/1999/xlink" width="48" height="48"><defs><style type="text/css"></style></defs><path d="M209.92 399.36H132.096c-30.72 0-55.296 24.576-55.296 55.296v411.648c0 30.72 24.576 55.296 55.296 55.296H209.92c15.36 0 28.16-12.288 28.16-28.16v-465.92c0-15.872-12.8-28.16-28.16-28.16zM859.648 399.36h-125.44c-23.552 0-41.472-20.992-37.376-44.544 8.192-46.08 13.824-103.424 13.824-103.424 11.264-68.096-33.792-134.656-101.888-144.896-5.12-0.512-11.264-1.024-17.408-1.024-59.392 0-112.128 43.008-121.856 103.424l-9.728 60.928C447.488 344.576 382.976 399.36 307.2 399.36h-7.68v522.24h493.056c42.496 0 78.848-30.208 87.04-71.68L947.2 505.344C957.44 450.56 915.968 399.36 859.648 399.36z" p-id="1519" fill="currentColor"></path></svg>
