<?xml version="1.0" standalone="no"?><!DOCTYPE svg PUBLIC "-//W3C//DTD SVG 1.1//EN" "http://www.w3.org/Graphics/SVG/1.1/DTD/svg11.dtd"><svg t="1577608626783" class="icon" viewBox="0 0 1024 1024" version="1.1" xmlns="http://www.w3.org/2000/svg" p-id="1845" xmlns:xlink="http://www.w3.org/1999/xlink" width="48" height="48"><defs><style type="text/css"></style></defs><path d="M921.14383789 746.10465056c-1.26302678 3.83254892-20.99581079 72.66318806-69.48140313 143.43990902-41.96429793 61.05252811-85.35679886 122.59933723-153.89062061 123.67980377-67.39622844 1.18478651-88.96331898-40.21319907-165.91235511-40.21319907-76.85092511 0-101.01113439 39.13273253-164.70521477 41.39798558-65.84507628 2.6949544-116.51271399-66.69082078-158.63597678-127.44528873-86.08828621-124.45724157-152.37424257-352.68142694-63.47426172-505.62943477 43.74023615-76.52554373 122.3596478-125.16885936 207.97352377-126.49770735 64.51746983-1.21956064 125.90158826 43.70546324 165.08772412 43.70546324 40.25790798 0 114.51447281-54.35984979 192.85321197-46.22654942 32.80020973 1.39715348 124.54541782 13.71198077 183.65683273 99.38546779-4.65097099 3.16439847-109.77532556 65.20176518-108.6042009 191.46350895C787.59081241 695.59225307 919.72184505 745.58428865 921.14383789 746.10465056M659.69470881 170.66594819c35.32626451-43.09195647 58.54013394-102.32632176 52.43239721-161.15209678-50.43912462 1.97837042-111.8927913 33.49692416-148.4162614 76.33304629-32.29350844 37.37293923-60.75695226 97.53004654-52.81863361 155.67276897C566.93485537 244.92375457 624.55845744 212.17197958 659.69470881 170.66594819" p-id="1846" fill="currentColor"></path></svg>
