<?xml version="1.0" standalone="no"?><!DOCTYPE svg PUBLIC "-//W3C//DTD SVG 1.1//EN" "http://www.w3.org/Graphics/SVG/1.1/DTD/svg11.dtd"><svg t="1575790301609" class="icon" viewBox="0 0 1024 1024" version="1.1" xmlns="http://www.w3.org/2000/svg" p-id="1122" xmlns:xlink="http://www.w3.org/1999/xlink" width="48" height="48"><defs><style type="text/css"></style></defs><path d="M821.95123291 786.13470459a43.74810791 43.74810791 0 1 0 0 87.5390625 43.74810791 43.74810791 0 0 0 0-87.5390625M716.10345459 583.71875c15.3984375 15.35641479 198.9140625 204.73626709 198.9140625 204.73626709s19.6171875 18.47763062 18.8154602 36.1123352c-0.75970459 17.59185791-19.40625 33.83404541-19.40625 33.83404542l-69.0185852 63.7451477S833.890625 933.875 813.13470459 933.875c-20.79876709 0-39.53018188-18.81546021-39.53018188-18.81546021S585.57516479 720.70123291 570.68347168 705.76751709c-5.2734375-4.55657959-6.83404541-19.828125 3.71282959-25.0595398 10.46200562-6.49703979 45.22467041-26.15625 68.00592041-48.9375 18.73141479-18.5625 29.15222168-33.9609375 40.37393189-49.44424438 8.14169312-13.41513062 20.96685791-10.96875 33.328125 1.39251709M390.5 90.125c-42.609375 0-54.97064209 3.45904541-86.86340333 13.54202271-31.89440917 10.125-23.62582398 21.09375-6.96176146 37.71578979 16.62203979 16.62203979 96.609375 100.1953125 96.609375 100.1953125a35.09967041 35.09967041 0 0 1-0.88577271 49.52828979L291.65435791 388.22171021a35.09967041 35.09967041 0 0 1-49.48544312-0.88577271S159.05871582 300.72467041 146.95123291 288.6171875c-12.10748291-12.10748291-30.375-27-40.5420227-0.71685791S90.125 338.77828979 90.125 383.20123291c0 161.87393188 134.49407959 293.07705688 300.375 293.07705688 165.83889771 0 300.33297729-131.203125 300.33297729-293.07705688S556.38092041 90.125 390.45797729 90.125" p-id="1123" fill="currentColor"></path></svg>
