<svg t="1579110156138" class="icon" viewBox="0 0 1024 1024" version="1.1" xmlns="http://www.w3.org/2000/svg" p-id="1969" width="48" height="48"><path d="M882.688 311.73973333c40.27733333 36.7616 76.9024 81.92 104.82346667 120.0128 33.4848 45.70453333 33.4848 114.82453333 0 160.52906667-27.88693333 38.0928-64.54613333 83.2512-104.82346667 120.0128-117.6576 107.17866667-245.8624 163.80586667-370.688 163.80586667s-253.0304-56.66133333-370.65386667-163.84c-40.31146667-36.7616-77.03893333-82.0224-104.96-120.25173334-33.41653333-45.7728-33.34826667-114.85866667 0.13653334-160.5632 27.8528-37.9904 64.54613333-83.01226667 104.82346666-119.7056 117.5552-107.17866667 245.76-163.84 370.65386667-163.84 124.8256 0 253.0304 56.6272 370.688 163.84zM512 785.06666667a273.06666667 273.06666667 0 0 0 0-546.13333334 273.06666667 273.06666667 0 0 0 0 546.13333334z m0.03413333-455.09973334l2.8672-0.03413333a182.03306667 182.03306667 0 1 1 0 364.06613333l-3.03786666-0.03413333H512a182.0672 182.0672 0 0 1-0.1024-364.06613333h0.13653333z m129.97973334 186.5728l0.03413333-1.024a22.49386667 22.49386667 0 1 0-44.9536 1.05813334v-0.03413334a66.73066667 66.73066667 0 0 1-66.6624 66.62826667 22.49386667 22.49386667 0 1 0 0 44.98773333 111.7184 111.7184 0 0 0 111.58186667-111.58186666z" p-id="1970" fill="currentColor"></path></svg>
