<?xml version="1.0" standalone="no"?><!DOCTYPE svg PUBLIC "-//W3C//DTD SVG 1.1//EN" "http://www.w3.org/Graphics/SVG/1.1/DTD/svg11.dtd"><svg t="1577608685496" class="icon" viewBox="0 0 1024 1024" version="1.1" xmlns="http://www.w3.org/2000/svg" p-id="3521" xmlns:xlink="http://www.w3.org/1999/xlink" width="48" height="48"><defs><style type="text/css"></style></defs><path d="M473.8 513.6c0-18.2 13.2-35.4 32.6-35.4 17.8 0 34.8 12.8 34.8 32.2 0 18.2-12.8 35.4-32.2 35.4-18 0-35.2-13.4-35.2-32.2zM1008 512c0 274-222 496-496 496S16 786 16 512 238 16 512 16s496 222 496 496z m-53.2 0c0-244.6-198.2-442.8-442.8-442.8S69.2 267.4 69.2 512 267.4 954.8 512 954.8 954.8 756.6 954.8 512z m-145 193.2c0 7.2 26 20.4 32.6 24.4-54.8 83-139.6 142.8-235.8 166.6l-8.8-37c-0.6-5-3.8-5.6-8.4-5.6-3.8 0-6 5.6-5.6 8.4l8.8 37.6c-26.6 5.6-53.6 8.4-80.8 8.4-72.6 0-144-20.4-206-58.2 3.4-5.6 24.4-36 24.4-40.4 0-3.8-3.4-7.2-7.2-7.2-7.8 0-24.4 33.2-29.4 39.8-83.6-55.4-144-141.2-167.2-239.2l38.2-8.4c4.4-1.2 5.6-4.4 5.6-8.4 0-3.8-5.6-6-8.8-5.6L124 589c-5-25.4-7.8-51-7.8-77 0-74.2 21-147.2 60.4-209.8 5.6 3.4 32.2 21.6 36.6 21.6 3.8 0 7.2-2.8 7.2-6.6 0-7.8-29.4-22.6-36-27.2 56.4-82.4 142.2-141.8 239.6-163.8l8.4 37c1.2 4.4 4.4 5.6 8.4 5.6s6-5.6 5.6-8.8L438 123.4c24.4-4.4 49.2-7.2 74.2-7.2 74.2 0 146.6 21 209.8 60.4-3.8 5.6-21.6 31.6-21.6 36 0 3.8 2.8 7.2 6.6 7.2 7.8 0 22.6-28.8 26.6-35.4 82 55.4 140.6 140 163.4 236.4l-31 6.6c-5 1.2-5.6 4.4-5.6 8.8 0 3.8 5.6 6 8.4 5.6l31.6-7.2c5 25.4 7.8 51.4 7.8 77.4 0 72.6-20 144-57.6 205.4-5.6-2.8-28.8-19.4-33.2-19.4-4.2 0-7.6 3.4-7.6 7.2z m-66.4-484.4c-26 24.4-268.4 247.4-275.2 259l-193.2 321c25.4-23.8 268.4-248 274.6-258.6l193.8-321.4z" p-id="3522" fill="currentColor"></path></svg>
