<?xml version="1.0" standalone="no"?><!DOCTYPE svg PUBLIC "-//W3C//DTD SVG 1.1//EN" "http://www.w3.org/Graphics/SVG/1.1/DTD/svg11.dtd"><svg t="1575623933669" class="icon" viewBox="0 0 1024 1024" version="1.1" xmlns="http://www.w3.org/2000/svg" p-id="3718" xmlns:xlink="http://www.w3.org/1999/xlink" width="48" height="48"><defs><style type="text/css"></style></defs><path d="M64 192a128 128 0 0 1 128-128h293.376a128 128 0 0 1 90.496 37.504l346.432 346.368a128 128 0 0 1 0 181.056L628.928 922.24a128 128 0 0 1-181.056 0L101.504 575.872A128 128 0 0 1 64 485.376V192z m223.168-0.448a95.616 95.616 0 1 0 0 191.232 95.616 95.616 0 0 0 0-191.232z" fill="#9E9E9E" p-id="3719"></path></svg>