<?xml version="1.0" standalone="no"?><!DOCTYPE svg PUBLIC "-//W3C//DTD SVG 1.1//EN" "http://www.w3.org/Graphics/SVG/1.1/DTD/svg11.dtd"><svg t="1575790283936" class="icon" viewBox="0 0 1024 1024" version="1.1" xmlns="http://www.w3.org/2000/svg" p-id="996" xmlns:xlink="http://www.w3.org/1999/xlink" width="48" height="48"><defs><style type="text/css"></style></defs><path d="M460.288 34.304A64 64 0 0 1 505.6 52.992l479.104 479.104a64 64 0 0 1 0 90.496l-362.048 362.048a64 64 0 0 1-90.496 0L52.992 505.536a64 64 0 0 1-18.688-45.248V98.304a64 64 0 0 1 64-64h361.984zM320 384a64 64 0 1 1 0-128 64 64 0 0 1 0 128z m0 64a128 128 0 1 0 0-256 128 128 0 0 0 0 256z" fill="#47c674" p-id="997"></path></svg>