<?xml version="1.0" standalone="no"?><!DOCTYPE svg PUBLIC "-//W3C//DTD SVG 1.1//EN" "http://www.w3.org/Graphics/SVG/1.1/DTD/svg11.dtd"><svg t="1577608668745" class="icon" viewBox="0 0 1024 1024" version="1.1" xmlns="http://www.w3.org/2000/svg" p-id="3011" xmlns:xlink="http://www.w3.org/1999/xlink" width="48" height="48"><defs><style type="text/css"></style></defs><path d="M402.602667 99.456l-384 50.090667A21.333333 21.333333 0 0 0 0 170.666667v298.666666a21.333333 21.333333 0 0 0 21.333333 21.333334h384a21.333333 21.333333 0 0 0 21.333334-21.333334V120.618667a21.205333 21.205333 0 0 0-7.253334-16 20.949333 20.949333 0 0 0-16.810666-5.162667zM1016.746667 26.666667a20.736 20.736 0 0 0-16.853334-5.12l-512 66.773333a21.333333 21.333333 0 0 0-18.56 21.162667V469.333333a21.333333 21.333333 0 0 0 21.333334 21.333334h512a21.333333 21.333333 0 0 0 21.333333-21.333334V42.666667a21.290667 21.290667 0 0 0-7.253333-16zM405.333333 533.333333h-384a21.333333 21.333333 0 0 0-21.333333 21.333334v298.666666c0 10.709333 7.978667 19.754667 18.602667 21.162667l384 50.090667a21.290667 21.290667 0 0 0 24.064-21.162667V554.666667a21.333333 21.333333 0 0 0-21.333334-21.333334zM1002.666667 533.333333h-512a21.333333 21.333333 0 0 0-21.333334 21.333334v359.893333c0 10.709333 7.978667 19.754667 18.602667 21.162667l512 66.773333A21.290667 21.290667 0 0 0 1024 981.333333V554.666667a21.333333 21.333333 0 0 0-21.333333-21.333334z" p-id="3012" fill="currentColor"></path></svg>
