<?xml version="1.0" standalone="no"?><!DOCTYPE svg PUBLIC "-//W3C//DTD SVG 1.1//EN" "http://www.w3.org/Graphics/SVG/1.1/DTD/svg11.dtd"><svg t="1575612860221" class="icon" viewBox="0 0 1024 1024" version="1.1" xmlns="http://www.w3.org/2000/svg" p-id="23754" xmlns:xlink="http://www.w3.org/1999/xlink" width="48" height="48"><defs><style type="text/css"></style></defs><path d="M450.366 990.616c13.73 16.626 34.496 27.204 57.774 27.204 23.27 0 44.032-10.584 57.76-27.204h34.754c16.188 0 29.5-13.274 29.5-29.618V901.96c0-16.304-13.312-29.5-29.5-29.5h-177.308c-16.188 0-29.5 13.196-29.5 29.5v59.04c0 16.342 13.312 29.616 29.5 29.616h27.02z m54.23-708.924c-126.424 0-228.904 102.52-228.904 228.904 0 129.89 111.734 205.508 111.734 272.068v16.188c0 16.226 13.194 29.3 29.264 29.3h175.852c16.068 0 29.262-13.074 29.262-29.3v-15.99c0-66.758 111.734-140.25 111.734-272.266-0.04-126.386-102.518-228.904-228.942-228.904z m-123.55 309.84c-17.172-24.144-27.294-53.406-27.294-85.112 0-81.998 67.466-148.52 150.646-148.52 28.988 0 55.966 8.154 78.888 22.214-2.756-0.158-5.632-0.432-8.468-0.432-107.6 0-194.756 86.054-194.756 192.196 0 6.578 0.394 13.234 0.984 19.654zM512 202.924c-21.78 0-39.384-17.606-39.384-39.386V45.384C472.616 23.604 490.22 6 512 6s39.384 17.604 39.384 39.384V163.54c0 21.78-17.604 39.386-39.384 39.386z m472.616 354.46H866.46c-21.78 0-39.386-17.604-39.386-39.384s17.606-39.384 39.386-39.384h118.154c21.78 0 39.384 17.604 39.384 39.384s-17.604 39.384-39.384 39.384z m-827.078 0H39.384C17.604 557.384 0 539.78 0 518s17.604-39.384 39.384-39.384H157.54c21.78 0 39.386 17.604 39.386 39.384s-17.606 39.384-39.386 39.384z m674.314 319.852a39.276 39.276 0 0 1-27.844-11.54l-83.536-83.534c-15.4-15.4-15.4-40.29 0-55.69 15.4-15.4 40.292-15.4 55.69 0l83.536 83.536c15.4 15.4 15.4 40.29 0 55.69-7.68 7.72-17.764 11.54-27.846 11.54zM280.508 325.852a39.276 39.276 0 0 1-27.846-11.54L169.088 230.78c-15.4-15.4-15.4-40.29 0-55.69 15.4-15.4 40.29-15.4 55.69 0l83.574 83.534c15.4 15.4 15.4 40.292 0 55.69-7.72 7.68-17.762 11.54-27.844 11.54zM196.932 877.236a39.276 39.276 0 0 1-27.844-11.54c-15.4-15.4-15.4-40.29 0-55.688l83.534-83.536c15.4-15.4 40.292-15.4 55.69 0 15.4 15.4 15.4 40.292 0 55.69L224.78 865.7a39.18 39.18 0 0 1-27.846 11.54zM748.32 325.892a39.276 39.276 0 0 1-27.846-11.54c-15.4-15.4-15.4-40.29 0-55.69l83.536-83.574c15.4-15.4 40.29-15.4 55.69 0 15.4 15.4 15.4 40.29 0 55.69l-83.536 83.574a39.276 39.276 0 0 1-27.844 11.54z" p-id="23755" fill="#fff"></path></svg>
