<?xml version="1.0" standalone="no"?><!DOCTYPE svg PUBLIC "-//W3C//DTD SVG 1.1//EN" "http://www.w3.org/Graphics/SVG/1.1/DTD/svg11.dtd"><svg t="1577811301676" class="icon" viewBox="0 0 1024 1024" version="1.1" xmlns="http://www.w3.org/2000/svg" p-id="7840" xmlns:xlink="http://www.w3.org/1999/xlink" width="48" height="48"><defs><style type="text/css"></style></defs><path d="M512 0A512 512 0 1 1 0 512 512 512 0 0 1 512 0z m219.648 665.1392L578.56 512l153.088-153.1392a47.7184 47.7184 0 0 0 0-66.56 47.2576 47.2576 0 0 0-66.56 0L512 445.44 358.912 292.3008a47.2576 47.2576 0 0 0-66.56 0 47.7184 47.7184 0 0 0 0 66.56L445.44 512l-153.088 153.1392a47.7184 47.7184 0 0 0 0 66.56 47.2576 47.2576 0 0 0 66.56 0L512 578.56l153.088 153.1392a47.104 47.104 0 0 0 66.56-66.56z" p-id="7841" fill="currentColor"></path></svg>
