<?xml version="1.0" standalone="no"?><!DOCTYPE svg PUBLIC "-//W3C//DTD SVG 1.1//EN" "http://www.w3.org/Graphics/SVG/1.1/DTD/svg11.dtd"><svg t="1577608647261" class="icon" viewBox="0 0 1024 1024" version="1.1" xmlns="http://www.w3.org/2000/svg" p-id="2494" xmlns:xlink="http://www.w3.org/1999/xlink" width="48" height="48"><defs><style type="text/css"></style></defs><path d="M15.527754 454.467731C45.535549 217.732464 207.059382 2.975186 496.580216 0c174.768212 3.391073 318.504909 82.569422 404.081509 233.536142 42.996243 78.762463 56.368587 161.555825 59.183817 252.922842v107.362643H317.429203c3.007178 264.919561 389.909384 255.930019 556.455844 139.161948v215.749006c-97.57332 58.575983-318.920795 110.977655-490.265943 43.604077-145.976085-54.769024-249.947655-207.559246-249.339821-354.495068-4.798688-190.539899 94.75809-316.713399 249.339821-388.501769-32.791034 40.596899-57.776202 85.384653-70.796641 162.96344h362.716819s21.2102-216.740735-205.351849-216.740735C256.645823 202.952505 102.671926 327.110556 15.495763 454.499723z" p-id="2495" fill="currentColor"></path></svg>
