<?xml version="1.0" standalone="no"?><!DOCTYPE svg PUBLIC "-//W3C//DTD SVG 1.1//EN" "http://www.w3.org/Graphics/SVG/1.1/DTD/svg11.dtd"><svg t="1577029290593" class="icon" viewBox="0 0 1024 1024" version="1.1" xmlns="http://www.w3.org/2000/svg" p-id="4206" xmlns:xlink="http://www.w3.org/1999/xlink" width="48" height="48"><defs><style type="text/css"></style></defs><path d="M501.859 425.035c0.057-0.085 0.135-0.166 0.188-0.25-0.211-1.008-0.381-1.894-0.46-2.521 0.096 0.916 0.191 1.842 0.272 2.772v0zM698.501 639.75c0.007 0 0.007-0.011 0.007-0.018-0.025-0.011-0.114-0.011-0.13-0.036 0.025 0.025 0.094 0.025 0.123 0.054v0zM703.54 640.38c-1.219-0.197-3.957 0.159-5.039-0.63-0.663 2.304 0.338 3.169 5.039 0.63v0zM511.999 0c-282.774 0-511.993 229.22-511.993 511.986 0 282.768 229.219 511.993 511.993 511.993 282.761 0 511.984-229.223 511.984-511.993 0.001-282.765-229.223-511.986-511.984-511.986v0zM839.023 200.004c-17.637 0.531-29.92 0.567-44.095 10.348-5.706 3.945-9.584 9.175-16.831 11.206-6.501 1.829-13.514 0.226-19.962 2.414-23.259 7.894-19.575 57.719-50.226 50.191-14.398-3.529-24.547-20.545-31.792-31.653-6.386-9.776-18.009-17.865-10.154-30.095-3.582 0.918-7.401-0.131-10.928 0.538 4.908-10.781 21.379-9.838 24.116-15.348 6.821-13.813-18.789-15.253-26.037-17.166 8.74-9.319 13.167 3.132 21.792 1.019 8.292-2.039-4.377-12.961-9.345-14.186-1.786-0.442-30.985 8.065-14.086-7.056-20.86-13.296-41.714-26.592-62.575-39.9-3.515 14.798 27.765 23.202 37.978 28.418-1.586 6.11-11.086 15.008-18.363 12.401-6.859-2.46-4.075-13.811-14.425-12.672-7.385 17.178 15.625 12.157 17.763 22.686 2.43 11.993-8.702 6.909-12.979 6.705-1.020-0.057-8.996-8.313-9.427-2.060-0.519 7.425 12.72 4.529 13.655 12.027-15.423 0.623-23.293-4.943-35.847-13.286-14.656-9.726-22.172-8.847-40.127-8.847 5.369-2.206 12.765-3.844 17.354-7.391 2.511-1.945 12.351-11.505 13.003-13.639 2.777-9.216-0.154-8.514-8.966-14.556-7.84-5.362-17.343-14.985-26.837-16.877-34.409-6.87-10.61 31.058-36.726 36.289 0.448 0.023 0.928 0.047 1.315 0.047h-1.495c0.067-0.005 0.119-0.035 0.181-0.047-6.042-0.214-17.366-1.687-21.259 1.506-2.75 2.246-2.977 11.259-6.053 14.516-5.463 5.834-13.613 6.995-20.137 11.2-6.365 4.103-20.402 14.635-24.144 21.782-13.783 26.331 31.053 34.505 48.051 42.199 7.679 3.481 30.121 8.239 34.305 14.049 5.603 7.805-4.835 15.123 6.873 20.606 3.737 1.748 11.449 2.105 14.666-1.516 5.234-5.895-2.123-7.226-3.376-14.039-2.434-13.115 1.57-7.906 8.165-12.775 13.445-9.923 10.412-10.53 5.579-26.348-2.245-7.356-10.718-27.906-3.264-33.342 9.714-7.084 30.438 3.842 37.893 4.761 8.672 1.060 13.59 13.072 18.318 17.989 3.139 3.263 8.75 10.186 14.236 9.436 8.705-1.188 5.060-8.8 10.111-12.309 13.54-9.391 17.11 3.366 22.505 16.129 5.078 11.982 9.879 16.432 18.918 24.121 4.201 3.577 22.591 16.35 20.858 24.224-1.18 5.303-22.189 13.347-27.811 15.126-20.537 6.506-59.062-10.649-63.2 21.922 7.968-2.971 30.633-21.485 37.428-12.706 3.101 3.978-2.453 9.776-1.15 13.731 3.879 11.858 13.025 7.727 22.614 5.809-0.657 0.409-1.326 0.766-2.035 1.083 13.103-6.731 11.738-5.332 17.753-16.249 1.959-3.571 4.884-12.203 7.646-14.758 9.525-8.756 10.988-2.726 16.889 4.031 1.546 1.779 16.131 22.783 10.937 21.733-16.963-3.402-33.25-2.947-47.324 6.33-8.105 5.357-15.773 12.576-25.454 16.137-2.325 0.844-19.507 2.477-17.473-0.454 2.965-4.272 13.171-7.101 17.195-11.713-11.158-4.596-20.473 5.553-29.239 11.487-9.307 4.404-11.471 12.61-19.394 19.801-3.463 3.134-10.005 3.674-13.397 7.801-3.292 4.007-3.708 10.303-6.831 14.106-2.186 2.665-7.803 1.054-10.087 5.066-2.981 5.243 2.726 10.111 1.474 13.886-2.289 6.865-15.343 12.689-20.363 17.627 0.674-0.643 1.338-1.305 1.995-1.981-5.033 5.277-11.401 9.161-15.326 15.27 1.803 8.62 7.487 29.188 5.906 33.92-5.233 15.562-15.401-8.467-19.519-14.677-14.159-21.335-42.463-7.057-61.801-5.29-24.722 2.265-48.946 34.358-33.693 60.407 7.322 12.49 19.637 17.325 33.769 14.434 12.577-2.571 16.351-20.163 28.19-20.487 21.757-0.578 0.482 21.328-1.405 29.362-1.741 7.444 2.714 8.135 10.377 9.982 5.661 1.351 13.675-2.425 18.585 0.807 3.086 2.039 2.94 13.214 7.191 9.692-8.372 6.937-6.416 23.382 2.164 29.327 9.515 6.597 20.717 0.486 30.679 3.019 18.805 4.804 9.827-1.431 26.342-11.401 11.142-6.714 12.973 1.269 20.591 1.299 5.189 0.023 8.478-7.452 17.143-5.277 7.065 1.776 9.856 7.23 18.293 8.489 3.457 0.512 7.030-1.303 10.329-0.939 15.609 1.733 27.551 11.703 39.847 20.72 10.133 7.421 16.843 5.917 28.684 9.3 8.643 2.468 24.604 14.982 23.788 25.965-0.149 1.965-7.709 11.845-9.001 16.298 2.217 1.533 17.603-1.907 22.108-2.233-1.483 1.723-11.965 9.089-11.965 5.184 0 1.998 7.42 6.113 9.221 7.395 5.469-17.75 14.446-6.329 25.257-1.931 9.188 3.74 20.492 3.946 30.291 6.278 8.322 1.982 26.661 7.596 32.827 14.393 7.419 8.186 2.291 21.475-3.202 29.618-7.18 10.669-18.010 14.775-22.487 27.328-3.543 9.95-0.887 20.001-2.909 31.037-2.733 14.929-4.925 9.698-14.544 18.806-8.086 7.675-0.135 6.342-11.147 11.231-11.070 4.921-20.812 3.451-28.474 15.596 0.307-0.761 0.556-1.53 0.772-2.326-3.237 4.519-4.851 13.785-6.383 16.825-3.865 7.759-9.194 12.652-15.3 19.113-2.342 2.471-23.862 31.881-25.109 29.517-1.599-3.072-18.57 3.081-19.378-1.298 0.676 3.683-0.159 2.449 4.051 4.567-3.898 24.167-14.123 27.771-37.853 28.015 2.041 11.616-8.601 9.302-13.543 15.547-2.894 3.644-4.27 13.895-6.277 18.617-1.252 2.969-10.513 14.857-10.513 17.209-0.011 2.172 3.113 5.349 6.044 8.395-16.731 3.308-33.79 5.616-51.115 7.025 3.246-4.086 4.025-7.679-6.308-8.171 2.767-7.51 9.262-11.792 12.009-19.073 1.306-3.433 0.228-4.79 1.329-8.186 3.779-11.746 2.141-7.311 0.011-16.438-4.992-21.375 1.775-27.222 7.602-46.79 5.982-20.11 5.427-46.187 9.259-67.847 1.818-10.366 4.794-31.94 1.196-41.744-4.058-11.030-21.901-19.721-30.073-27.148-11.573-10.54-17.721-21.932-26.314-34.961-4.365-6.623-9.334-13.111-12.737-20.307-7.277-15.389 0.006-6.228 1.232-15.307 1.172-8.773-1.050-16.619 2.435-25.829 3.854-10.181 13.474-16.529 16.636-26.791 2.843-9.143 0.679-20.633-8.711-23.678-5.232-1.709-11.009 2.229-16.262 1.364-7.332-1.188-15.631-6.659-21.383-11.031-8.032-6.124-11.041-16.064-19.591-21.868-7.161-4.835-12.253-1.935-19.91-4.205-7.991-2.352-12.922-12.206-19.366-15.289-9.668-4.626-15.115 2.018-25.323 0.673-8.684-1.137-21.924-10.755-30.033-14.394-16.493-7.379-26.535-15.53-33.127-32.265-5.65-14.357-13.885-21.049-23.578-33.002-9.821-12.118-12.899-22.439-28.044-25.665-1.771-0.39 3.708 12.713 4.275 13.767 5.407 10.016 13.534 19.167 20.069 28.497 9.619 13.739 5.519 16.318-4.263 3.033-11.189-15.201-24.166-30.316-33.869-46.411-3.667-6.082-2.96-10.016-9.012-15.79-5.842-5.584-13.494-8.304-19.383-13.607-21.175-19.049-25.029-44.476-22.615-71.621 0.789-8.853 3.986-15.932 2.574-24.438-1.162-7.062-5.334-12.905-10.542-18.11-1.677-2.673-5.895-9.259-6.139-9.68-4.806-7.985-8.546-15.842-16.186-22.393-4.381-3.775-15.722-12.593-26.395-19.984 47.961-59.821 110.721-107.231 182.722-136.662 0.574 3.616 2.127 7.232 4.455 10.689 5.922 8.778 11.561 8.087 23.116 10.512-1.239 13.414-16.917 13.519-27.525 12.068-12.667-1.742-25.991-5.946-36.964 5.15 6.059 3.646 22.693 17.836 20.482 3.010 12.133-0.606 23.861-0.969 35.735 0.482 4.754 0.583 20.692 5.934 25.010 3.491 1.813-1.026 3.746-9.962 5.663-12.718-3.383 0.023-7.010-1.689-10.386-1.365 7.861-10.065 15.695-2.164 25.697 2.46-11.012 6.694-4.477 22.733 6.29 9.705 8.843-10.718-2.165-18.489-13.396-24.734 11.325-14.163 18.311-15.447 28.967 0.543 1.757-9.861 9.714-5.91 18.029-5.185v-2.466c-3.662 0.090-7.567-2.018-11.194-1.636 8.473-13.519 3.065-16.607 15.178-21.022 9.645-3.509 37.168-0.237 40.556-9.306-19.259 3.74-42.524 4.637-59.9 13.394-7.493 3.774-16.422 15.698-23.902 7.952-7.669-7.952 5.486-20.733 12.214-24.627h-1.609c30.473-6.483 62.030-9.958 94.41-9.958 20.923 0 41.479 1.549 61.661 4.302-6.983 3.665-1.818 6.143-6.901 9.897-9.714 7.141-26.962 13.105-38.524 17.62 14.698-0.039 50.27 13.778 57.111-6.835-4.742-0.725-9.475-1.456-14.212-2.187 8.853-5.871 18.73-10.62 29.1-14.108 93.58 18.54 176.813 66.007 240.138 132.605-0.45-0.014-0.899-0.026-1.34-0.014v0zM921.888 379.763c0.845-1.804 2.812-2.393 3.625-3.876 1.71-3.125 1.329-5.245 3.433-7.918 2.254-2.895 5.299-3.606 7.815-5.865 1.014-0.913 1.581-1.758 2.045-2.62 7.551 21.077 13.569 42.871 17.95 65.246-0.135 0.159-0.212 0.402-0.377 0.532-1.097 0.874-8.275 1.939-9.746 1.99-5.196 0.199-9.056-3.249-12.785-6.495-3.801-3.292-8.263-7.709-10.962-11.975-2.884-4.558-1.104-9.243-0.893-14.452 0.169-4.377-1.962-10.624-0.103-14.566v0zM927.749 614.507c-8.796-7.638-19.173-17.881-25.423-27.775-6.678-10.553-2.564-21.412-2.076-33.497 0.407-10.162-4.555-24.627-0.24-33.78 1.982-4.176 6.526-5.559 8.401-8.982 3.972-7.249 3.095-12.146 7.974-18.38 5.233-6.695 12.271-8.339 18.103-13.585 6.109-5.504 5.939-9.845 9.811-16.895 2.826-5.159 9.479-13.756 15.777-18.25 3.414 22.38 5.193 45.306 5.193 68.621 0 40.351-5.367 79.454-15.308 116.715-8.481-2.189-15.45-8.299-22.213-14.194v0zM927.749 614.507z" p-id="4207" fill="currentColor" ></path></svg>
