<?xml version="1.0" standalone="no"?><!DOCTYPE svg PUBLIC "-//W3C//DTD SVG 1.1//EN" "http://www.w3.org/Graphics/SVG/1.1/DTD/svg11.dtd"><svg t="1577346395900" class="icon" viewBox="0 0 1024 1024" version="1.1" xmlns="http://www.w3.org/2000/svg" p-id="1392" xmlns:xlink="http://www.w3.org/1999/xlink" width="48" height="48"><defs><style type="text/css"></style></defs><path d="M959.366957 959.599248c-65.515133 0.25685-344.92889-0.328481-418.419671-0.328481-294.968012 0-477.565746-202.044646-477.565746-448.789353 0-246.747777 200.441125-446.740694 447.696462-446.740694 247.261477 0 447.702602 199.992917 447.702602 446.740694 0 84.23038-31.214932 182.533266-78.092589 257.171174C811.67829 889.172245 955.336154 868.137163 959.366957 959.599248L959.366957 959.599248zM319.211159 447.354678c-35.304064 0-63.955614 28.653597-63.955614 63.955614 0 35.367509 28.65155 63.956637 63.955614 63.956637 35.303041 0 63.955614-28.589129 63.955614-63.956637C383.166773 476.008274 354.514199 447.354678 319.211159 447.354678L319.211159 447.354678zM511.079024 447.354678c-35.303041 0-63.955614 28.653597-63.955614 63.955614 0 35.367509 28.653597 63.956637 63.955614 63.956637 35.30918 0 63.961754-28.589129 63.961754-63.956637C575.040778 476.008274 546.387181 447.354678 511.079024 447.354678L511.079024 447.354678zM702.952007 447.354678c-35.304064 0-63.955614 28.653597-63.955614 63.955614 0 35.367509 28.652574 63.956637 63.955614 63.956637 35.304064 0 63.955614-28.589129 63.955614-63.956637C766.907621 476.008274 738.25607 447.354678 702.952007 447.354678L702.952007 447.354678zM702.952007 447.354678" p-id="1393" fill="currentColor"></path></svg>
