<?xml version="1.0" standalone="no"?><!DOCTYPE svg PUBLIC "-//W3C//DTD SVG 1.1//EN" "http://www.w3.org/Graphics/SVG/1.1/DTD/svg11.dtd"><svg t="1577608678538" class="icon" viewBox="0 0 1058 1024" version="1.1" xmlns="http://www.w3.org/2000/svg" p-id="3263" xmlns:xlink="http://www.w3.org/1999/xlink" width="49.59375" height="48"><defs><style type="text/css"></style></defs><path d="M995.316202 301.725051c20.626649-55.999953 29.918493-106.66954 27.875532-150.588022-2.29185-47.485886-17.826652-86.177705-46.45922-115.111015-56.518471-55.999953-202.273904-45.951073-363.180436 24.826646-11.075546-0.767407-22.399981-1.14074-34.626638-1.14074a476.932933 476.932933 0 0 0-297.090121 103.257691c-82.745116 65.426612-142.322844 157.463572-167.782081 259.176079l-8.783697 35.134786 22.275537-28.518495c59.608839-76.502158 119.819159-131.371742 190.586507-172.998373-14.134803 14.134803-27.626643 27.626643-31.442937 31.567381a1110.219809 1110.219809 0 0 0-160.885791 203.549458c-40.610336 66.069574-73.577716 136.214701-95.345105 202.657608C9.831103 756.548373-0.601481 815.866841 0.031111 865.260874c0.632592 50.534772 13.108137 89.18511 35.902192 112.145091 31.111085 31.111085 73.836975 46.594035 126.15545 46.594035 57.285878 0 126.15545-18.666651 203.165755-56.269582 66.194019 33.185157 138.112477 50.026625 213.733154 50.026624a479.110709 479.110709 0 0 0 453.288509-324.094543l3.43259-10.05925H765.467506l-2.167406 3.951107a199.930203 199.930203 0 0 1-351.55526 0.124445 201.713905 201.713905 0 0 1-23.426647-87.836964l406.207066 0.124445h259.902004l0.767407-6.87555a499.851432 499.851432 0 0 0 2.799998-54.48588 479.70182 479.70182 0 0 0-62.678466-236.879801zM133.819147 716.415073a481.620337 481.620337 0 0 0 185.629474 225.441292c-45.702184 19.599984-86.30215 30.551085-120.928788 32.842936-37.810339 2.551109-66.577722-5.72444-85.420669-24.567387-39.614782-39.677004-31.982195-124.330266 20.719983-233.716841z m837.230409-452.251472A481.039596 481.039596 0 0 0 773.61861 101.224478c88.977703-34.875526 156.063573-35.518489 189.922804-1.524443 30.67553 31.183678 33.226639 87.826593 7.508142 164.463566zM389.178933 460.83751a190.721321 190.721321 0 0 1 379.555237 0z" fill="currentColor" p-id="3264"></path></svg>
