<?xml version="1.0" standalone="no"?><!DOCTYPE svg PUBLIC "-//W3C//DTD SVG 1.1//EN" "http://www.w3.org/Graphics/SVG/1.1/DTD/svg11.dtd"><svg t="1577106918894" class="icon" viewBox="0 0 1024 1024" version="1.1" xmlns="http://www.w3.org/2000/svg" p-id="16398" xmlns:xlink="http://www.w3.org/1999/xlink" width="48" height="48"><defs><style type="text/css"></style></defs><path d="M558.933333 89.6c78.848-78.848 205.653333-80.64 283.136-3.157333l72.192 72.192c77.482667 77.482667 75.690667 204.202667-3.157333 283.050666L725.504 627.2c-78.848 78.848-205.568 80.64-283.050667 3.157333l-39.168-39.253333a44.8 44.8 0 0 1 63.317334-63.232l39.253333 39.168c42.069333 42.069333 112.042667 41.130667 156.330667-3.157333l185.6-185.6c44.288-44.288 45.226667-114.346667 3.157333-156.416l-72.192-72.192c-42.154667-42.154667-112.213333-41.130667-156.416 3.072L510.976 264.277333a44.8 44.8 0 0 1-63.402667-63.317333l111.445334-111.445333z m-83.370666 660.992l63.317333 63.317333-6.144 6.144-63.317333-63.317333 24.746666-24.746667a44.8 44.8 0 1 1 63.317334 63.317334l-111.445334 111.445333c-78.762667 78.762667-205.482667 80.554667-282.965333 3.072l-72.277333-72.192c-77.482667-77.482667-75.690667-204.202667 3.157333-283.050667l185.6-185.6c78.848-78.848 205.568-80.64 283.050667-3.157333l44.373333 44.373333a44.8 44.8 0 0 1-63.317333 63.402667l-44.373334-44.373333c-42.154667-42.154667-112.128-41.216-156.416 3.072L157.269333 617.813333c-44.288 44.288-45.226667 114.346667-3.072 156.416l72.192 72.192c42.069333 42.154667 112.128 41.130667 156.330667-3.072l92.842667-92.842666z" p-id="16399" fill="currentColor"></path></svg>
