<?xml version="1.0" standalone="no"?><!DOCTYPE svg PUBLIC "-//W3C//DTD SVG 1.1//EN" "http://www.w3.org/Graphics/SVG/1.1/DTD/svg11.dtd"><svg t="1577608674244" class="icon" viewBox="0 0 1024 1024" version="1.1" xmlns="http://www.w3.org/2000/svg" p-id="3137" xmlns:xlink="http://www.w3.org/1999/xlink" width="48" height="48"><defs><style type="text/css"></style></defs><path d="M416.992 879.424c-16-6.784-23.584-16.16-23.232-36.192 1.632-90.464 1.408-180.992 0.384-271.488-0.256-23.52 5.28-33.728 31.2-33.088 65.728 1.6 131.488 0.512 199.264 0.512 1.568 9.312 3.936 17.024 3.968 24.704 0.256 95.2 0.384 190.4-0.096 285.6-0.032 9.984-4.16 19.968-6.4 29.92h-205.088z m-176.864-6.4H6.752V152.704c12.544-0.608 25.088-1.696 37.632-1.696 237.952-0.064 475.872-0.256 713.824 0.192 147.104 0.288 259.264 111.424 260.16 258.72 0.896 150.752 0.032 301.536-0.16 452.288 0 2.208-1.088 4.448-2.496 9.792h-229.536V386.656H240.128v486.368z" p-id="3138" fill="currentColor"></path></svg>
