<svg t="1575727640646" class="icon" viewBox="0 0 1025 1024" version="1.1" xmlns="http://www.w3.org/2000/svg" p-id="11882" width="48" height="48"><path d="M522.006911 990.749712c-154.259316 0-308.518632-0.076748-462.776925 0.088004-22.070668 0.022513-38.742373-9.234315-50.314942-27.41028-3.428076-5.383614-4.490268-12.340049-6.252401-18.682501-0.63752-2.295276-0.177032-4.90266-0.177032-7.365758-0.004093-150.387126 0.040932-300.775274-0.096191-451.160353-0.010233-10.972912 1.571798-20.942985 9.465582-29.226648 1.321088-1.385557 1.760087-3.773953 2.227738-5.786797 23.039739-99.145068 46.038546-198.299345 69.041446-297.453622 4.250814-18.323321 7.197936-37.072337 13.016455-54.884005 11.82635-36.20355 33.505092-57.958016 73.513294-60.953234 4.560876-0.340761 9.150404-0.385786 13.726629-0.399089 219.23926-0.662079 438.47852-1.379417 657.718803-1.762133 12.355399-0.021489 25.027 1.470491 37.008892 4.445242 22.753213 5.649674 37.455053 21.741163 45.509497 42.814108 6.485715 16.966417 10.661827 34.894741 14.918781 52.622498 24.589025 102.387925 48.886407 204.847481 73.376171 307.260989 0.582261 2.436492 2.387373 4.555759 3.385097 6.92369 2.761903 6.562463 5.925966 13.024641 7.894807 19.826558 1.288343 4.452405 1.025353 9.42772 1.026376 14.168698 0.044002 151.972227 0.102331 303.94343-0.12689 455.914634-0.014326 9.015328-1.483794 18.276249-3.883447 26.980491-3.814886 13.843286-14.509459 24.248264-32.776498 24.207331-139.115408-0.309038-278.232862-0.168846-417.349293-0.168846C554.055838 990.749712 538.030863 990.749712 522.006911 990.749712zM979.396129 477.899344c-0.473791-2.276856-0.76748-3.950985-1.172709-5.598508-27.65792-112.478747-55.251372-224.975914-83.092463-337.409636-3.235694-13.069667-7.359618-25.980721-12.012591-38.619576-2.920516-7.93267-9.428743-13.440104-17.917068-14.94948-8.263198-1.471514-16.752546-2.37714-25.13854-2.356674-205.124797 0.512676-410.250618 1.181919-615.374392 1.826602-16.374946 0.051165-32.755008-0.13303-49.121767 0.2415-21.847587 0.499373-34.551934 11.092639-39.740096 32.348756C108.774379 224.200248 81.699744 335.013053 54.645574 445.829951c-2.568499 10.518564-5.055133 21.055548-7.696286 32.070416C358.018 477.899344 668.366304 477.899344 979.396129 477.899344zM257.781064 801.667286c170.435741 0 340.576769 0 510.667655 0 0-53.815673 0-107.23328 0-160.52809-170.433694 0-340.438623 0-510.667655 0C257.781064 694.793186 257.781064 748.06139 257.781064 801.667286z" fill="#9E9E9E" p-id="11883"></path><path d="M513.014096 224.598314c-105.47217 0-210.945363 0.005117-316.417533-0.007163-12.313443-0.001023-20.25737-5.536087-23.12058-15.966647-3.650133-13.299911 5.874801-26.500561 19.660782-27.214828 1.933025-0.100284 3.873214-0.056282 5.810333-0.056282 209.53627-0.002047 419.072541-0.00307 628.609835 0.01228 2.987031 0.001023 6.040576-0.138146 8.948813 0.404206 10.644431 1.983167 18.175965 12.050454 17.216103 22.657023-1.047866 11.583826-9.339716 19.704784-20.593014 20.12434-2.286066 0.085958-4.577249 0.045025-6.865361 0.045025C721.846332 224.599338 617.431238 224.598314 513.014096 224.598314z" fill="#9E9E9E" p-id="11884"></path><path d="M513.017166 335.560522c-98.242512 0-196.486046 0.004093-294.729581-0.00614-13.022595-0.001023-21.298072-6.02011-23.766286-17.177218-2.867304-12.960173 6.743588-25.497721 20.029172-26.100448 1.933025-0.086981 3.873214-0.057305 5.809309-0.057305 195.253986-0.002047 390.506948-0.005117 585.761957 0.020466 3.329838 0 6.768147-0.13303 9.969049 0.604774 10.784624 2.488681 17.283642 12.394285 16.07921 23.930015-1.100054 10.529821-9.778714 18.639522-20.726044 18.709107-26.057469 0.166799-52.114938 0.074701-78.17343 0.075725C659.854443 335.562569 586.436316 335.560522 513.017166 335.560522z" fill="#9E9E9E" p-id="11885"></path></svg>
