<?xml version="1.0" standalone="no"?><!DOCTYPE svg PUBLIC "-//W3C//DTD SVG 1.1//EN" "http://www.w3.org/Graphics/SVG/1.1/DTD/svg11.dtd"><svg t="1577608694068" class="icon" viewBox="0 0 1026 1024" version="1.1" xmlns="http://www.w3.org/2000/svg" p-id="3773" xmlns:xlink="http://www.w3.org/1999/xlink" width="48.09375" height="48"><defs><style type="text/css"></style></defs><path d="M2.239531 195.137912c77.558483-54.573826 157.474367-52.923646 201.7935 16.501805 30.764079 61.292418 16.973285 126.828158-51.037725 195.782129C47.737364 510.911737-0.94296 616.641158 6.247112 723.66715c15.205235 184.466605 142.858483 304.929781 373.058661 296.914619-103.961371-17.209025-171.736641-93.706678-198.493139-195.074908-19.094946-72.490072-5.186282-148.869855 56.931227-233.50054 41.725992-51.155595 113.744584-91.349277 185.173825-137.554331 72.843682-54.927436 105.965162-112.330144 119.991696-161.364079C622.707396 13.853798 204.622381-150.221291 2.239531 195.137912z" p-id="3774"></path><path d="M399.697289 818.081048m-149.577074 0a149.577075 149.577075 0 1 0 299.154149 0 149.577075 149.577075 0 1 0-299.154149 0Z" p-id="3775"></path><path d="M399.697289 818.081048m-67.30379 0a67.30379 67.30379 0 1 0 134.607581 0 67.30379 67.30379 0 1 0-134.607581 0Z" p-id="3776"></path><path d="M243.048013 683.237728c97.832129-108.440432 280.412814-96.535559 349.248914 39.722202 56.813357 137.554331-8.604513 258.606857-142.858483 299.036279 129.185559 0.11787 257.428157-3.300361 383.549095-13.908664-16.030325-46.087184-59.052888-74.022382-140.854692-76.144043 29.349639-71.664981 30.764079-150.755775-12.612094-242.105052-125.649458-207.687002-384.963535-170.557941-436.47274-6.600722z" p-id="3777"></path><path d="M1024.879956 685.948739c-42.786823-17.916245-83.098375-14.498014-121.759746 3.889711-53.748736 29.467509-102.900541 33.59296-148.162634 15.912455-82.155415-143.683573-198.728879-214.051984-354.553066-201.08628 74.140252-51.627075 255.424366-28.760289 387.674546 62.235378 26.992238 16.619675 56.695487 30.764079 93.942418 38.307762 13.201444 0.47148 26.756498 4.832671 38.307761 6.011372 71.429241 7.190072 105.965162 28.053068 104.550721 74.729602zM535.3657 437.242965c91.349277-36.186101 173.858302-72.961552 214.994944-119.048736-2.946751-64.357039 14.498014-108.911913 44.319134-141.561912 24.516967 24.752707 41.018772 59.052888 48.916064 103.136281 119.166606 40.900902 180.576894 126.356678 177.276533 261.907218-136.257761 55.634657-205.093861-33.00361-273.812092-56.813357-81.212454-36.421841-149.105595-47.265884-211.694583-47.619494z" p-id="3778" fill="currentColor"></path></svg>
