<?xml version="1.0" standalone="no"?><!DOCTYPE svg PUBLIC "-//W3C//DTD SVG 1.1//EN" "http://www.w3.org/Graphics/SVG/1.1/DTD/svg11.dtd"><svg t="1577608658765" class="icon" viewBox="0 0 1194 1024" version="1.1" xmlns="http://www.w3.org/2000/svg" p-id="2746" xmlns:xlink="http://www.w3.org/1999/xlink" width="55.96875" height="48"><defs><style type="text/css"></style></defs><path d="M1152.166884 0H42.722295C19.091525 0 0 19.091525 0 42.722295v938.55541c0 23.630769 19.091525 42.722295 42.722295 42.722295h1109.444589c23.630769 0 42.722295-19.091525 42.722295-42.722295V42.722295c0-23.630769-19.091525-42.722295-42.722295-42.722295zM352.458931 550.450065c0 8.544459-1.335072 36.046936-24.698827 58.876663-18.023468 18.290482-48.730117 33.643807-101.732464 33.643807C101.732464 646.174707 102.800522 555.790352 102.800522 555.790352V377.291265h82.907953V536.698827s-4.272229 41.387223 42.45528 41.387223c40.319166 0 41.387223-38.316558 41.387223-38.316558V377.291265H352.458931v173.1588z m301.859713 92.920991l-81.839896 0.667536-0.667535-1.068057h-0.400522v-0.667536L485.298566 507.327249v135.643286h-82.907953v-265.67927h82.907953L571.410691 512.400522V377.291265h82.907953v266.079791z m130.70352-0.400521h-82.907953v-265.67927H785.022164v265.67927z m206.135072-1.068058l-38.450065-58.609648-39.117601 59.677706h-100.931421l90.517861-135.109257-1.335071-2.002608-83.976011-128.567405h98.795307l35.913429 56.740547 35.245893-56.740547h98.795306L1002.638853 506.926728l-0.667536 0.93455L1092.088657 641.902477h-100.931421z" p-id="2747" fill="currentColor"></path></svg>
