<?xml version="1.0" standalone="no"?><!DOCTYPE svg PUBLIC "-//W3C//DTD SVG 1.1//EN" "http://www.w3.org/Graphics/SVG/1.1/DTD/svg11.dtd"><svg t="1558281603362" class="icon" style="" viewBox="0 0 1024 1024" version="1.1" xmlns="http://www.w3.org/2000/svg" p-id="2222" xmlns:xlink="http://www.w3.org/1999/xlink" width="128" height="128"><defs><style type="text/css"></style></defs><path d="M797.2 338.4c-1.8-4.4-4-8.6-7-12.2l-167.6-183.4c-3.8-4.2-8.4-7.2-13.4-9.8-5.8-3-12.2-4.2-19-4.2L270.4 128.8c-24.8 0-45.4 21.2-45.4 47.8l0 670.4c0 26.8 20.6 49.8 45.4 49.8l486.2 0c24.8 0 44.4-23 44.4-49.8L801 358.8C801 351.6 800 344.6 797.2 338.4zM321 357.2c0-3 3.6-4.2 6.8-4.2l141.6 0c3.2 0 5.6 1.2 5.6 4.2l0 21.6c0 2.8-2.2 6.2-5.6 6.2l-141.6 0c-3.2 0-6.8-3.4-6.8-6.2L321 357.2zM321 613.2c0-3 3.6-4.2 6.8-4.2l244.4 0c3.2 0 4.8 1.2 4.8 4.2l0 21.6c0 2.8-1.4 6.2-4.8 6.2L327.8 641c-3.2 0-6.8-3.4-6.8-6.2L321 613.2zM641 762.8c0 2.8-1.4 6.2-4.8 6.2L327.8 769c-3.2 0-6.8-3.4-6.8-6.2l0-21.6c0-3 3.6-4.2 6.8-4.2l308.4 0c3.2 0 4.8 1.2 4.8 4.2L641 762.8zM705 506.8c0 2.8-1.4 6.2-4.8 6.2L327.8 513c-3.2 0-6.8-3.4-6.8-6.2l0-21.6c0-3 3.6-4.2 6.8-4.2l372.4 0c3.2 0 4.8 1.2 4.8 4.2L705 506.8zM611.2 355c-11.2 0-22.2-10.4-22.2-22.6l0-132 142.4 154.6L611.2 355z" p-id="2223"></path></svg>