<?xml version="1.0" standalone="no"?><!DOCTYPE svg PUBLIC "-//W3C//DTD SVG 1.1//EN" "http://www.w3.org/Graphics/SVG/1.1/DTD/svg11.dtd"><svg t="1558281390315" class="icon" style="" viewBox="0 0 1024 1024" version="1.1" xmlns="http://www.w3.org/2000/svg" p-id="1951" xmlns:xlink="http://www.w3.org/1999/xlink" width="128" height="128"><defs><style type="text/css"></style></defs><path d="M944 478.4 944 478.4C944 478.4 943.8 478.4 944 478.4L564.2 96.2c0 0 0 0 0 0l-2.8-2.8c0 0-1 0-1 0-15-14.4-32.2-21.8-54.2-22.2l0 0-179.8-6.6-7.8-0.2c-20.2 0.2-40 8.2-55.4 23.6l-54.2 54.4c14.8-13.2 33.2-20 52-20.2l7.6 0.2 179.6 6.6 0 0c22 0.4 39.4 7.8 54.4 22.2 0 0 0.8 0 1 0l2.8 2.8c0 0 0 0 0 0L886 536.2c0 0 0 0 0 0l0 0c20 21.6 21.4 56.4 0 77.8l58-57.8C965.2 534.8 964 500 944 478.4z" p-id="1952"></path><path d="M856 565c0 0 0.6 0 0.6 0L477.2 182.8c0 0 0 0 0 0l-2.6-2.8c0 0-0.6 0-0.6 0-15-14.4-31.8-21.8-53.8-22.2l0 0-180.2-6.6-8-0.2c-18.4 0.2-36.4 6.8-51.2 19.6-0.6 0.6-1.4 1.2-2 1.8-0.8 0.8-1.6 1.6-2.4 2.4l-88.6 89c-16.2 16.2-23.8 37.8-23.8 59 0 0 0 0 0 0.2l0.2 7.6 11.8 175.8c0 0.2 0 0.2 0 0.4l0 3.4c0 0 0 0 0 0 2 15.8 8.4 31.2 19.2 44l10.2 9.8L478 940.8l5.6 5.6c21.4 18.8 54.2 18 74.6-2.6l26.2-26.4c1-0.8 1.8-1.6 2.8-2.6l53.8-54c-0.4 0.2-0.6 0.4-1 0.8l216.6-218.6C877.8 621.6 878 586.6 856 565L856 565zM221.2 279c13.2-8 28.6-12.6 45.2-12.6 47.8 0 86.8 38.8 86.8 86.8 0 16.6-4.6 32-12.6 45.2-15.2 25-42.6 41.6-74 41.6-47.8 0-86.8-38.8-86.8-86.8C179.6 321.6 196.2 294.2 221.2 279z" p-id="1953"></path></svg>