<?xml version="1.0" standalone="no"?><!DOCTYPE svg PUBLIC "-//W3C//DTD SVG 1.1//EN" "http://www.w3.org/Graphics/SVG/1.1/DTD/svg11.dtd"><svg t="1558602703085" class="icon" style="" viewBox="0 0 1024 1024" version="1.1" xmlns="http://www.w3.org/2000/svg" p-id="10495" xmlns:xlink="http://www.w3.org/1999/xlink" width="128" height="128"><defs><style type="text/css"></style></defs><path d="M816 128 192 128c-44.004 0-64 35.996-64 80l0 688 128-128 560 0c44.004 0 80-35.996 80-80L896 208C896 163.996 860.004 128 816 128zM396.8 484 320 484l0-80 76.8 0L396.8 484zM550.4 484l-76.8 0 0-80 76.8 0L550.4 484zM704 484l-76.8 0 0-80L704 404 704 484z" p-id="10496" fill="#303133"></path></svg>